<svg xmlns="http://www.w3.org/2000/svg" xmlns:xlink="http://www.w3.org/1999/xlink" viewBox="0 0 1200 410"><defs><style>.cls-1{fill:none;}.cls-2{fill:url(#linear-gradient);}.cls-3{fill:url(#linear-gradient-2);}.cls-4{fill:url(#linear-gradient-3);}.cls-5{fill:url(#linear-gradient-4);}.cls-6{fill:url(#linear-gradient-5);}.cls-7{fill:#e10000;}.cls-8{fill:url(#linear-gradient-6);}.cls-9{fill:url(#linear-gradient-7);}.cls-10{fill:url(#linear-gradient-8);}.cls-11{fill:url(#linear-gradient-9);}.cls-12{fill:url(#linear-gradient-10);}.cls-13{fill:url(#linear-gradient-11);}.cls-14{fill:url(#linear-gradient-12);}.cls-15{fill:url(#linear-gradient-13);}.cls-16{fill:url(#linear-gradient-14);}.cls-17{fill:url(#linear-gradient-15);}.cls-18{fill:url(#linear-gradient-16);}.cls-19{fill:url(#linear-gradient-17);}.cls-20{fill:url(#linear-gradient-18);}.cls-21{fill:url(#linear-gradient-19);}.cls-22{fill:url(#linear-gradient-20);}.cls-23{fill:url(#linear-gradient-21);}.cls-24{fill:url(#linear-gradient-22);}</style><linearGradient id="linear-gradient" x1="113.01" y1="122.92" x2="65.12" y2="202" gradientUnits="userSpaceOnUse"><stop offset="0" stop-color="#32324e"/><stop offset="0.4" stop-color="#2d2e4a"/><stop offset="0.83" stop-color="#20213e"/><stop offset="1" stop-color="#191a38"/></linearGradient><linearGradient id="linear-gradient-2" x1="228.98" y1="118.95" x2="122.06" y2="96.67" gradientUnits="userSpaceOnUse"><stop offset="0" stop-color="#d60000"/><stop offset="1" stop-color="#c3000a"/></linearGradient><linearGradient id="linear-gradient-3" x1="145.69" y1="40.41" x2="183.56" y2="217.13" gradientUnits="userSpaceOnUse"><stop offset="0" stop-color="#fff" stop-opacity="0"/><stop offset="0.59" stop-color="#fff" stop-opacity="0.19"/><stop offset="1" stop-color="#fff" stop-opacity="0.3"/></linearGradient><linearGradient id="linear-gradient-4" x1="65.87" y1="306.75" x2="361.02" y2="194.26" gradientUnits="userSpaceOnUse"><stop offset="0" stop-color="#181850"/><stop offset="0.33" stop-color="#0d0d3b"/><stop offset="0.72" stop-color="#030329"/><stop offset="1" stop-color="#002"/></linearGradient><linearGradient id="linear-gradient-5" x1="31.92" y1="220.91" x2="479.65" y2="310.01" gradientUnits="userSpaceOnUse"><stop offset="0" stop-color="#fff" stop-opacity="0.2"/><stop offset="0.06" stop-color="#fff" stop-opacity="0.19"/><stop offset="0.67" stop-color="#fff" stop-opacity="0.05"/><stop offset="1" stop-color="#fff" stop-opacity="0"/></linearGradient><linearGradient id="linear-gradient-6" x1="248.64" y1="173.39" x2="46.68" y2="188.24" xlink:href="#linear-gradient-3"/><linearGradient id="linear-gradient-7" x1="328.15" y1="201.02" x2="538.75" y2="201.02" xlink:href="#linear-gradient"/><linearGradient id="linear-gradient-8" x1="730.36" y1="210.74" x2="943.66" y2="210.74" xlink:href="#linear-gradient"/><linearGradient id="linear-gradient-9" x1="729.1" y1="310.87" x2="943.61" y2="136.12" gradientUnits="userSpaceOnUse"><stop offset="0" stop-color="#fff" stop-opacity="0.2"/><stop offset="0.17" stop-color="#fff" stop-opacity="0.16"/><stop offset="0.7" stop-color="#fff" stop-opacity="0.04"/><stop offset="1" stop-color="#fff" stop-opacity="0"/></linearGradient><linearGradient id="linear-gradient-10" x1="1202.33" y1="83.6" x2="1001.07" y2="213.75" gradientUnits="userSpaceOnUse"><stop offset="0" stop-color="#fff" stop-opacity="0"/><stop offset="0.2" stop-color="#fff" stop-opacity="0.03"/><stop offset="0.5" stop-color="#fff" stop-opacity="0.11"/><stop offset="0.87" stop-color="#fff" stop-opacity="0.24"/><stop offset="1" stop-color="#fff" stop-opacity="0.3"/></linearGradient><linearGradient id="linear-gradient-11" x1="65.01" y1="374.67" x2="73.74" y2="374.67" xlink:href="#linear-gradient"/><linearGradient id="linear-gradient-12" x1="130.39" y1="374.92" x2="185.92" y2="374.92" xlink:href="#linear-gradient"/><linearGradient id="linear-gradient-13" x1="242.56" y1="374.92" x2="298.1" y2="374.92" xlink:href="#linear-gradient"/><linearGradient id="linear-gradient-14" x1="354.74" y1="374.4" x2="410.14" y2="374.4" xlink:href="#linear-gradient"/><linearGradient id="linear-gradient-15" x1="462.21" y1="374.56" x2="523.81" y2="374.56" xlink:href="#linear-gradient"/><linearGradient id="linear-gradient-16" x1="560.58" y1="372.15" x2="620.14" y2="372.15" xlink:href="#linear-gradient"/><linearGradient id="linear-gradient-17" x1="666.55" y1="374.13" x2="713.35" y2="374.13" xlink:href="#linear-gradient"/><linearGradient id="linear-gradient-18" x1="769.99" y1="374.67" x2="778.73" y2="374.67" xlink:href="#linear-gradient"/><linearGradient id="linear-gradient-19" x1="835.37" y1="374.4" x2="890.77" y2="374.4" xlink:href="#linear-gradient"/><linearGradient id="linear-gradient-20" x1="947.41" y1="374.92" x2="1002.95" y2="374.92" xlink:href="#linear-gradient"/><linearGradient id="linear-gradient-21" x1="1059.59" y1="374.06" x2="1115.12" y2="374.06" xlink:href="#linear-gradient"/><linearGradient id="linear-gradient-22" x1="582.88" y1="380.38" x2="597.84" y2="380.38" xlink:href="#linear-gradient"/></defs><title>e-lab logo svg</title><g id="Layer_2" data-name="Layer 2"><path class="cls-1" d="M138.08,262.88l-.34.11.07,0Z"/><path class="cls-1" d="M63.2,138.89a20,20,0,0,0-.65,5S62.73,142.1,63.2,138.89Z"/><path class="cls-2" d="M137.74,263l-65.26-37.8a20.07,20.07,0,0,1-10-17.4l.09-63.89a20,20,0,0,1,.65-5C65,126.37,71.08,92.3,87.19,59L23.41,95.71a24,24,0,0,0-12,20.82l-.17,118.75A23.57,23.57,0,0,0,23,255.71l28.27,16.38C85.81,280.13,133.33,264.49,137.74,263Z"/><path class="cls-3" d="M72.63,126.49,127.8,94.75a20.46,20.46,0,0,1,20.5,0l51.93,30.08s35.12,19.35,23.76,60.21l40.62-23V113.89a19,19,0,0,0-9.49-16.45L150,36.56a23.76,23.76,0,0,0-23.76,0L87.19,59C71.08,92.3,65,126.37,63.2,138.89A20.11,20.11,0,0,1,72.63,126.49Z"/><path class="cls-4" d="M72.63,126.49,127.8,94.75a20.46,20.46,0,0,1,20.5,0l51.93,30.08s35.12,19.35,23.76,60.21l40.62-23V113.89a19,19,0,0,0-9.49-16.45L150,36.56a23.76,23.76,0,0,0-23.76,0L87.19,59C71.08,92.3,65,126.37,63.2,138.89A20.11,20.11,0,0,1,72.63,126.49Z"/><path class="cls-5" d="M138.08,262.88l-.27.15-.07,0c-4.41,1.5-51.93,17.14-86.52,9.1l74.68,43.25a23.7,23.7,0,0,0,23.68,0l89.79-51.68a50.19,50.19,0,0,0,25.16-43.44l0-30.08-86.44,49.65Z"/><path class="cls-6" d="M138.08,262.88l-.27.15-.07,0c-4.41,1.5-51.93,17.14-86.52,9.1l74.68,43.25a23.7,23.7,0,0,0,23.68,0l89.79-51.68a50.19,50.19,0,0,0,25.16-43.44l0-30.08-86.44,49.65Z"/><path class="cls-7" d="M200.23,124.86a8.38,8.38,0,0,1-.07,14.55l-28.94,16.38-25-14.46a16.58,16.58,0,0,0-16.55,0l-25.15,14.52a17.19,17.19,0,0,0-8.59,14.87V200.2a15.79,15.79,0,0,0,7.9,13.68l34.11,19.69.35-.2v.24l75.1-42.51,10.65-6C235.35,144.21,200.23,124.86,200.23,124.86Z"/><path class="cls-8" d="M200.23,124.86a8.38,8.38,0,0,1-.07,14.55l-28.94,16.38-25-14.46a16.58,16.58,0,0,0-16.55,0l-25.15,14.52a17.19,17.19,0,0,0-8.59,14.87V200.2a15.79,15.79,0,0,0,7.9,13.68l34.11,19.69.35-.2v.24l75.1-42.51,10.65-6C235.35,144.21,200.23,124.86,200.23,124.86Z"/><path class="cls-9" d="M504.26,201.45a67.19,67.19,0,0,1-56,26.6c-43.24-1.56-112.7-1-120.11,18.16L345.91,209a67.19,67.19,0,0,1,62.9-38.2c46.24,1.52,114.7.9,129.94-14.93Z"/><path class="cls-7" d="M559.54,276.94s29.82-19,30.73-41.57V89.3a71.39,71.39,0,0,1,41.29-64.75L667.1,12.13s-15.33,6.08-11.88,212a37.76,37.76,0,0,0,19.46,32.68l7.36,4A10.66,10.66,0,0,1,684.15,278l-30.81,28.33a24.09,24.09,0,0,1-29.86,2.18C602.9,294.51,568.28,272.57,559.54,276.94Z"/><path class="cls-10" d="M919.27,246.23V192.89c-3.63-46.09,24.39-47,24.39-47L836.57,106.66A24.24,24.24,0,0,0,815.13,109l-64.28,41.29a44.59,44.59,0,0,0-20.49,37.52v71.82a44.61,44.61,0,0,0,24.2,39.66L781,312.91a30.6,30.6,0,0,0,25.78,1l38.75-16.14a27.67,27.67,0,0,1,28.25,4.2l8.14,6.72a20.1,20.1,0,0,0,25.77-.14l28.47-24a13.64,13.64,0,0,0,1-19.9Zm-72.51,21.39L842.09,269a35.42,35.42,0,0,1-32.19-6.49h0c-18.33-11.44-16-36.47-16-45.52,0-2,.5-8.13.93-15.33A188.93,188.93,0,0,1,798,174.8a21.72,21.72,0,0,1,19.87-17.29c18.23-1.11,37.2,12.78,37.2,12.78V256.5A11.58,11.58,0,0,1,846.76,267.62Z"/><path class="cls-11" d="M919.27,246.23V192.89c-3.63-46.09,24.39-47,24.39-47L836.57,106.66A24.24,24.24,0,0,0,815.13,109l-64.28,41.29a44.59,44.59,0,0,0-20.49,37.52v71.82a44.61,44.61,0,0,0,24.2,39.66L781,312.91a30.6,30.6,0,0,0,25.78,1l38.75-16.14a27.67,27.67,0,0,1,28.25,4.2l8.14,6.72a20.1,20.1,0,0,0,25.77-.14l28.47-24a13.64,13.64,0,0,0,1-19.9Zm-72.51,21.39L842.09,269a35.42,35.42,0,0,1-32.19-6.49h0c-18.33-11.44-16-36.47-16-45.52,0-2,.5-8.13.93-15.33A188.93,188.93,0,0,1,798,174.8a21.72,21.72,0,0,1,19.87-17.29c18.23-1.11,37.2,12.78,37.2,12.78V256.5A11.58,11.58,0,0,1,846.76,267.62Z"/><path class="cls-7" d="M1105.25,105.92l-28.42,14.78a5.65,5.65,0,0,1-8.27-5.11l.74-46.51c0-42.5,38.86-52.45,38.86-52.45h0a49.64,49.64,0,0,0-40-.59l-57.55,24.31A29.27,29.27,0,0,0,995,78.77a90.39,90.39,0,0,1,5.59,18.33c14.47,175.33-18.08,180.75-18.08,180.75L1076,313.52a40.11,40.11,0,0,0,43.38-9.81L1177,243.08a42.82,42.82,0,0,0,11.64-33.36c-6.73-75-50.45-98.34-68.78-104.89A18.35,18.35,0,0,0,1105.25,105.92Zm-37.77,131.25V163.3a9.09,9.09,0,0,1,11.25-8.87c56.86,14.66,59.27,87.27,59.27,87.27C1110,285.09,1067.48,237.17,1067.48,237.17Z"/><path class="cls-12" d="M1105.25,105.92l-28.42,14.78a5.65,5.65,0,0,1-8.27-5.11l.74-46.51c0-42.5,38.86-52.45,38.86-52.45h0a49.64,49.64,0,0,0-40-.59l-57.55,24.31A29.27,29.27,0,0,0,995,78.77a90.39,90.39,0,0,1,5.59,18.33c14.47,175.33-18.08,180.75-18.08,180.75L1076,313.52a40.11,40.11,0,0,0,43.38-9.81L1177,243.08a42.82,42.82,0,0,0,11.64-33.36c-6.73-75-50.45-98.34-68.78-104.89A18.35,18.35,0,0,0,1105.25,105.92Zm-37.77,131.25V163.3a9.09,9.09,0,0,1,11.25-8.87c56.86,14.66,59.27,87.27,59.27,87.27C1110,285.09,1067.48,237.17,1067.48,237.17Z"/><path class="cls-13" d="M65,347h8.73v55.35H65Z"/><path class="cls-14" d="M169.13,347.4a16.67,16.67,0,0,1,6.49,1.29,16.84,16.84,0,0,1,5.37,3.6,17.13,17.13,0,0,1,3.62,5.36,16.41,16.41,0,0,1,1.31,6.5v38.29h-8.64V364.15a7.78,7.78,0,0,0-.64-3.15,8.12,8.12,0,0,0-1.76-2.57,9,9,0,0,0-2.61-1.77,7.59,7.59,0,0,0-3.14-.66H147.27a8.14,8.14,0,0,0-8.19,8.15v38.29h-8.69V364.15a16.09,16.09,0,0,1,1.33-6.5,17.66,17.66,0,0,1,3.62-5.36,16.71,16.71,0,0,1,5.34-3.6,17,17,0,0,1,6.59-1.29Z"/><path class="cls-15" d="M281.31,347.4a16.65,16.65,0,0,1,11.85,4.89,17,17,0,0,1,3.62,5.36,16.25,16.25,0,0,1,1.32,6.5v38.29h-8.65V364.15a7.86,7.86,0,0,0-2.4-5.72,8.81,8.81,0,0,0-2.6-1.77,7.59,7.59,0,0,0-3.14-.66H259.44a8.16,8.16,0,0,0-8.19,8.15v38.29h-8.69V364.15a16.09,16.09,0,0,1,1.34-6.5,17.66,17.66,0,0,1,3.62-5.36,16.5,16.5,0,0,1,5.34-3.6,16.93,16.93,0,0,1,6.58-1.29Z"/><path class="cls-16" d="M393.39,346.68a16.69,16.69,0,0,1,11.86,4.91,17,17,0,0,1,3.6,5.39,16.49,16.49,0,0,1,1.29,6.49v21.86a16.38,16.38,0,0,1-1.29,6.54,16.9,16.9,0,0,1-9,8.94,16.23,16.23,0,0,1-6.47,1.31h-21.9a16.13,16.13,0,0,1-6.52-1.31,17,17,0,0,1-5.34-3.62,16.79,16.79,0,0,1-3.6-5.32,16.38,16.38,0,0,1-1.29-6.54V363.47A16.49,16.49,0,0,1,356,357a17,17,0,0,1,3.6-5.39A16.66,16.66,0,0,1,365,348a16.46,16.46,0,0,1,6.52-1.29ZM364,388.5a8.6,8.6,0,0,0,1.77,2.61,8.47,8.47,0,0,0,2.6,1.74,8,8,0,0,0,3.13.63h21.9a7.91,7.91,0,0,0,3.15-.63,8.2,8.2,0,0,0,4.34-4.35,7.73,7.73,0,0,0,.66-3.17V363.47a7.76,7.76,0,0,0-.66-3.17,8.53,8.53,0,0,0-1.76-2.6,8.15,8.15,0,0,0-2.58-1.74,7.91,7.91,0,0,0-3.15-.63h-21.9a8,8,0,0,0-3.13.63,8.13,8.13,0,0,0-2.6,1.74,8.56,8.56,0,0,0-1.77,2.6,7.92,7.92,0,0,0-.65,3.17v21.86A7.89,7.89,0,0,0,364,388.5Z"/><path class="cls-17" d="M523.81,347.45l-20,54.22H481.89l-19.68-53.95h9.18q16.44,44.31,16.8,45.35h9.36q.38-1,17.07-45.62Z"/><path class="cls-18" d="M576.56,351a20,20,0,0,1,8.73-5.78,16.31,16.31,0,0,1,5.07-.83,16.69,16.69,0,0,1,5.14.83,19.85,19.85,0,0,1,4.77,2.31,19.2,19.2,0,0,1,3.94,3.47,14.39,14.39,0,0,1,2.62,4.34l12.09,30.37a17.78,17.78,0,0,1,1.22,6.36,9.57,9.57,0,0,1-1.31,5c-1.24,1.93-1.68,2.77-4,2.77l-4-10.92-12-30.42a7.53,7.53,0,0,0-1.34-2,11.62,11.62,0,0,0-2-1.77,10.64,10.64,0,0,0-2.52-1.27,7.84,7.84,0,0,0-2.53-.47,7.36,7.36,0,0,0-2.51.47,11.18,11.18,0,0,0-2.45,1.27,13.22,13.22,0,0,0-2.08,1.77,8,8,0,0,0-1.42,2l-11.69,30.76-3.9,10.63c-2.36,0-3.09-.89-4.33-2.82a8.45,8.45,0,0,1-1.4-4.89,18.21,18.21,0,0,1,1.31-6.43l12-30.37A14.71,14.71,0,0,1,576.56,351Zm17.78,25v8.73h-7.87V376Z"/><path class="cls-19" d="M713.35,346.27v8.6h-19.1V402h-8.6V354.87h-19.1v-8.6Z"/><path class="cls-20" d="M770,347h8.74v55.35H770Z"/><path class="cls-21" d="M874,346.68a16.65,16.65,0,0,1,11.86,4.91,17,17,0,0,1,3.6,5.39,16.49,16.49,0,0,1,1.29,6.49v21.86a16.38,16.38,0,0,1-1.29,6.54,16.93,16.93,0,0,1-9,8.94,16.28,16.28,0,0,1-6.48,1.31h-21.9a16.13,16.13,0,0,1-6.52-1.31,17,17,0,0,1-5.34-3.62,16.79,16.79,0,0,1-3.6-5.32,16.38,16.38,0,0,1-1.29-6.54V363.47a16.49,16.49,0,0,1,1.29-6.49,17,17,0,0,1,3.6-5.39A16.66,16.66,0,0,1,845.6,348a16.46,16.46,0,0,1,6.52-1.29ZM844.63,388.5a8.12,8.12,0,0,0,4.37,4.35,7.91,7.91,0,0,0,3.12.63H874a7.91,7.91,0,0,0,3.15-.63,8.5,8.5,0,0,0,2.58-1.74,8.6,8.6,0,0,0,1.77-2.61,7.89,7.89,0,0,0,.65-3.17V363.47a7.92,7.92,0,0,0-.65-3.17,8.56,8.56,0,0,0-1.77-2.6,8.15,8.15,0,0,0-2.58-1.74,7.91,7.91,0,0,0-3.15-.63h-21.9A7.91,7.91,0,0,0,849,356a8.07,8.07,0,0,0-2.61,1.74,8.35,8.35,0,0,0-1.76,2.6,7.76,7.76,0,0,0-.66,3.17v21.86A7.73,7.73,0,0,0,844.63,388.5Z"/><path class="cls-22" d="M986.15,347.4a16.72,16.72,0,0,1,6.5,1.29,16.87,16.87,0,0,1,9,9,16.25,16.25,0,0,1,1.32,6.5v38.29H994.3V364.15a7.86,7.86,0,0,0-2.4-5.72,8.81,8.81,0,0,0-2.6-1.77,7.6,7.6,0,0,0-3.15-.66H964.29a8.16,8.16,0,0,0-8.19,8.15v38.29h-8.69V364.15a16.09,16.09,0,0,1,1.34-6.5,17.48,17.48,0,0,1,3.62-5.36,16.5,16.5,0,0,1,5.34-3.6,16.9,16.9,0,0,1,6.58-1.29Z"/><path class="cls-23" d="M1110.78,346.36V355h-36.44a6.08,6.08,0,0,0-6.11,6.11v2.63A5.75,5.75,0,0,0,1070,368a5.91,5.91,0,0,0,4.32,1.77h25.94a14.5,14.5,0,0,1,5.77,1.15,15.41,15.41,0,0,1,4.73,3.15,14.47,14.47,0,0,1,4.34,10.41v2.62a14.47,14.47,0,0,1-4.34,10.41,15.41,15.41,0,0,1-4.73,3.15,14.5,14.5,0,0,1-5.77,1.15h-36.35v-8.6h36.35a5.82,5.82,0,0,0,4.37-1.81,6,6,0,0,0,1.74-4.3v-2.62a5.86,5.86,0,0,0-1.74-4.26,5.93,5.93,0,0,0-4.37-1.76h-25.94a14.43,14.43,0,0,1-10.45-4.35,15.43,15.43,0,0,1-3.15-4.68,14.07,14.07,0,0,1-1.15-5.68v-2.63a14.33,14.33,0,0,1,1.15-5.72,14.62,14.62,0,0,1,7.83-7.83,14.51,14.51,0,0,1,5.77-1.16Z"/><polygon class="cls-24" points="594.1 373.9 586.62 373.9 582.88 380.38 586.62 386.85 594.1 386.85 597.84 380.38 594.1 373.9"/></g></svg>