<svg xmlns="http://www.w3.org/2000/svg" xmlns:xlink="http://www.w3.org/1999/xlink" viewBox="0 0 800 800"><defs><style>.cls-1{fill:none;}.cls-2{fill:url(#linear-gradient);}.cls-3{fill:url(#linear-gradient-2);}.cls-4{fill:url(#linear-gradient-3);}.cls-5{fill:url(#linear-gradient-4);}.cls-6{fill:url(#linear-gradient-5);}.cls-7{fill:#e10000;}.cls-8{fill:url(#linear-gradient-6);}</style><linearGradient id="linear-gradient" x1="352.63" y1="298.46" x2="260.92" y2="449.89" gradientUnits="userSpaceOnUse"><stop offset="0" stop-color="#32324e"/><stop offset="0.4" stop-color="#2d2e4a"/><stop offset="0.83" stop-color="#20213e"/><stop offset="1" stop-color="#191a38"/></linearGradient><linearGradient id="linear-gradient-2" x1="574.71" y1="290.85" x2="369.96" y2="248.2" gradientUnits="userSpaceOnUse"><stop offset="0" stop-color="#d60000"/><stop offset="1" stop-color="#c3000a"/></linearGradient><linearGradient id="linear-gradient-3" x1="415.22" y1="140.46" x2="487.73" y2="478.86" gradientUnits="userSpaceOnUse"><stop offset="0" stop-color="#fff" stop-opacity="0"/><stop offset="0.59" stop-color="#fff" stop-opacity="0.19"/><stop offset="1" stop-color="#fff" stop-opacity="0.3"/></linearGradient><linearGradient id="linear-gradient-4" x1="262.37" y1="650.48" x2="827.56" y2="435.07" gradientUnits="userSpaceOnUse"><stop offset="0" stop-color="#181850"/><stop offset="0.33" stop-color="#0d0d3b"/><stop offset="0.72" stop-color="#030329"/><stop offset="1" stop-color="#002"/></linearGradient><linearGradient id="linear-gradient-5" x1="197.36" y1="486.09" x2="1054.73" y2="656.71" gradientUnits="userSpaceOnUse"><stop offset="0" stop-color="#fff" stop-opacity="0.2"/><stop offset="0.06" stop-color="#fff" stop-opacity="0.19"/><stop offset="0.67" stop-color="#fff" stop-opacity="0.05"/><stop offset="1" stop-color="#fff" stop-opacity="0"/></linearGradient><linearGradient id="linear-gradient-6" x1="612.36" y1="395.11" x2="225.62" y2="423.55" xlink:href="#linear-gradient-3"/></defs><title>e-lab icon only</title><g id="Layer_2" data-name="Layer 2"><path class="cls-1" d="M400.65,566.47l-.65.22.13.08Z"/><path class="cls-1" d="M257.25,329a38.81,38.81,0,0,0-1.24,9.6S256.36,335.19,257.25,329Z"/><path class="cls-2" d="M400,566.69,275,494.3A38.42,38.42,0,0,1,255.84,461L256,338.64a38.81,38.81,0,0,1,1.24-9.6c3.46-24,15.09-89.21,45.94-153L181.07,246.35A46.06,46.06,0,0,0,158,286.22l-.32,227.39a45.17,45.17,0,0,0,22.53,39.14l54.12,31.35C300.54,599.5,391.54,569.56,400,566.69Z"/><path class="cls-3" d="M275.32,305.3,381,244.51a39.26,39.26,0,0,1,39.25.06l99.46,57.6s67.24,37.05,45.49,115.31l77.79-44,0-92.26a36.39,36.39,0,0,0-18.17-31.51L423.48,133.09A45.49,45.49,0,0,0,378,133l-74.79,43c-30.85,63.76-42.48,129-45.94,153A38.5,38.5,0,0,1,275.32,305.3Z"/><path class="cls-4" d="M275.32,305.3,381,244.51a39.26,39.26,0,0,1,39.25.06l99.46,57.6s67.24,37.05,45.49,115.31l77.79-44,0-92.26a36.39,36.39,0,0,0-18.17-31.51L423.48,133.09A45.49,45.49,0,0,0,378,133l-74.79,43c-30.85,63.76-42.48,129-45.94,153A38.5,38.5,0,0,1,275.32,305.3Z"/><path class="cls-5" d="M400.65,566.47l-.52.3-.13-.08c-8.46,2.87-99.46,32.81-165.69,17.41l143,82.83a45.36,45.36,0,0,0,45.34.07l172-99a96.15,96.15,0,0,0,48.18-83.19l.08-57.6L477.33,522.34Z"/><path class="cls-6" d="M400.65,566.47l-.52.3-.13-.08c-8.46,2.87-99.46,32.81-165.69,17.41l143,82.83a45.36,45.36,0,0,0,45.34.07l172-99a96.15,96.15,0,0,0,48.18-83.19l.08-57.6L477.33,522.34Z"/><path class="cls-7" d="M519.66,302.17a16.05,16.05,0,0,1-.14,27.86L464.1,361.4l-48-27.68a31.69,31.69,0,0,0-31.69,0l-48.16,27.8A32.89,32.89,0,0,0,319.86,390v56.44A30.25,30.25,0,0,0,335,472.64l65.32,37.71L401,510v.45L544.76,429l20.39-11.54C586.9,339.22,519.66,302.17,519.66,302.17Z"/><path class="cls-8" d="M519.66,302.17a16.05,16.05,0,0,1-.14,27.86L464.1,361.4l-48-27.68a31.69,31.69,0,0,0-31.69,0l-48.16,27.8A32.89,32.89,0,0,0,319.86,390v56.44A30.25,30.25,0,0,0,335,472.64l65.32,37.71L401,510v.45L544.76,429l20.39-11.54C586.9,339.22,519.66,302.17,519.66,302.17Z"/></g></svg>