<?xml version="1.0" encoding="UTF-8"?>
<svg id="Layer_1" data-name="Layer 1" xmlns="http://www.w3.org/2000/svg" viewBox="0 0 451.22 508.06">
  <defs>
    <style>
      .cls-1 {
        fill: #ed1c24;
      }
    </style>
  </defs>
  <path class="cls-1" d="M451.21,229.42c-8.23,4.66-16.25,9.2-24.27,13.74-62.72,35.5-125.44,71.01-188.16,106.52-3.62,2.05-7.27,4.04-10.85,6.17-1.4,.83-2.53,.76-3.91-.05-19.74-11.44-39.55-22.74-59.23-34.28-9.17-5.38-13.88-13.69-13.95-24.35-.11-17.4-.1-34.8,0-52.2,.07-11.73,5.23-20.78,15.31-26.73,14.78-8.72,29.66-17.29,44.6-25.74,9.91-5.61,20.03-5.55,29.94,.09,13.69,7.79,27.3,15.73,40.94,23.61,1.09,.63,2.18,1.24,3.32,1.88,3.55-2.01,7.05-3.97,10.53-5.95,13.51-7.65,27.02-15.32,40.55-22.95,3.75-2.12,6.32-5.14,7.43-9.32,1.74-6.58-.94-13.1-6.9-16.65-5.17-3.08-10.4-6.05-15.61-9.07-25.4-14.71-50.78-29.45-76.2-44.11-12.44-7.17-25.07-7.28-37.52-.15-32.57,18.64-65.1,37.34-97.57,56.15-11.41,6.61-17.28,16.82-18.12,29.95-.06,.89-.06,1.78-.06,2.68-.02,18.89-.03,37.78-.04,56.66-.01,18.37-.11,36.74-.01,55.1,.07,13.67,6.01,24.33,17.78,31.2,38.18,22.29,76.49,44.37,114.75,66.53,.45,.26,.92,.49,1.52,.81,75.03-43.12,150.12-86.26,225.48-129.58,.06,1.09,.13,1.8,.13,2.51,0,17.03,.03,34.06-.01,51.09-.07,32.04-17.04,61.35-44.83,77.36-52.99,30.52-105.98,61.05-159.02,91.49-14.48,8.31-29.2,8.34-43.67-.01-43.77-25.26-87.47-50.62-131.2-75.95-17.1-9.91-34.22-19.79-51.29-29.77-10.56-6.17-17.2-15.32-20.01-27.22C-.02,364.19-.05,359.43,.02,354.66c.02-1.19,.05-2.38,.05-3.57,.03-25.36,.05-50.71,.09-76.07,.04-27.22,.1-54.43,.15-81.65,.03-15.02-.09-30.04,.11-45.06,.22-16.24,7.44-28.7,21.35-37.03,11.66-6.99,23.55-13.61,35.33-20.39,25.38-14.6,50.75-29.2,76.13-43.81,23.7-13.64,47.34-27.38,71.1-40.92,14.34-8.17,28.99-8.26,43.28,0,62.1,35.85,124.12,71.84,186.17,107.79,9.45,5.48,15.15,13.6,17.01,24.37,.31,1.82,.4,3.7,.4,5.55,.02,27.81,.02,55.62,.02,83.44,0,.66,0,1.33,0,2.13Z"/>
</svg>