<?xml version="1.0" encoding="UTF-8"?>
<svg id="Layer_1" data-name="Layer 1" xmlns="http://www.w3.org/2000/svg" viewBox="0 0 698.4 263.52">
  <defs>
    <style>
      .cls-1 {
        <!-- fill: #ed1c24; -->
        fill: transparent;
        stroke: #ed1c24;
        stroke-width: 2;
        stroke-dasharray: 1000;
        stroke-dashoffset: 1000;
        animation: draw 2s linear forwards;
      }

      @keyframes draw {
      0% {
        stroke-dashoffset: 1000;
      }
      100% {
        stroke-dashoffset: 0;
        fill: #ed1c24;
      }
    }
    </style>
  </defs>
  <g>
    <path class="cls-1" id="main_origin" d="M128.99,65.16c3.74,2.17,3.71,7.6-.05,9.73l-19.31,10.96-16.71-9.67c-3.42-1.98-7.62-1.98-11.04,0l-16.78,9.71c-3.54,2.05-5.73,5.85-5.73,9.95v19.72c0,3.78,2.01,7.26,5.27,9.15l22.76,13.18,.23-.13v.16s50.1-28.44,50.1-28.44l7.1-4.03c7.58-27.34-15.85-40.29-15.85-40.29Z"/>
    <path class="cls-1" id="main_top" d="M43.87,66.25l36.8-21.24c4.23-2.44,9.45-2.44,13.67,.02l34.65,20.13s23.43,12.95,15.85,40.29l27.1-15.38V57.82c0-4.54-2.42-8.73-6.34-11.01L95.49,6.08c-4.9-2.85-10.94-2.85-15.85-.02l-26.05,15.04c-10.75,22.28-14.8,45.07-16.01,53.45,.89-3.46,3.13-6.47,6.29-8.29Z"/>
    <path class="cls-1" id="main_left" d="M87.31,157.57l-43.54-25.29c-4.14-2.41-6.69-6.84-6.68-11.64l.06-42.74c0-1.15,.15-2.27,.43-3.35,1.21-8.38,5.26-31.17,16.01-53.45L11.03,45.65c-4.97,2.87-8.04,8.18-8.04,13.93l-.11,79.45c0,5.64,2.98,10.85,7.85,13.67l18.86,10.95c23.07,5.38,54.78-5.08,57.72-6.08Z"/>
    <path class="cls-1" id="main_bottom" d="M87.53,157.5l-.18,.1-.05-.03c-2.95,1-34.65,11.46-57.72,6.08l49.82,28.94c4.88,2.84,10.9,2.84,15.79,.02l59.9-34.57c10.37-5.99,16.77-17.06,16.79-29.06l.03-20.12-57.67,33.22-26.71,15.42Z"/>
    <path class="cls-1" id="logo_minus" d="M231.49,82.69h73.85c0,16.72-13.57,30.29-30.29,30.29h-73.85c0-16.72,13.57-30.29,30.29-30.29Z"/>
    <path class="cls-1" id="logo_l" d="M386.6,143.44l-17.65-10.19s-.03-.01-.05-.02V38.18c0-18.91-15.33-34.24-34.24-34.24h0V153.01s0,.02,0,.04v20.38c0,3.96,2.11,7.62,5.55,9.61l17.65,10.19c3.43,1.98,7.66,1.98,11.09,0l17.65-10.19c3.43-1.98,5.55-5.64,5.55-9.61v-20.38c0-3.96-2.11-7.62-5.55-9.61Z"/>
    <path class="cls-1" id="logo_a" d="M542.67,97.57c0-3.97-2.11-7.63-5.54-9.61l-49.7-28.69c-3.43-1.98-7.66-1.98-11.09,0l-49.69,28.69c-3.43,1.98-5.55,5.64-5.55,9.61v57.38c0,3.96,2.12,7.62,5.55,9.6l49.69,28.69c3.43,1.98,7.66,1.98,11.09,0l25.95-14.98c6.01,9.87,16.87,16.47,29.27,16.47h0v-39.51c0-.09,.02-.18,.02-.26v-57.38Zm-39.81,47.2l-15.43,8.91c-3.43,1.98-7.66,1.98-11.09,0l-15.43-8.91c-3.43-1.98-5.55-5.64-5.55-9.61v-17.81c0-3.97,2.12-7.63,5.55-9.61l15.43-8.91c3.43-1.98,7.66-1.98,11.09,0l15.43,8.91c3.44,1.98,5.55,5.64,5.55,9.61v17.81c0,3.97-2.11,7.63-5.55,9.61Z"/>
    <path class="cls-1" id="logo_b" d="M687.66,87.96l-49.7-28.69c-3.43-1.98-7.66-1.98-11.09,0l-20.99,12.12V38.18c0-18.91-15.33-34.24-34.24-34.24V97.53s0,.02,0,.04v57.38c0,3.96,2.12,7.62,5.55,9.6l49.69,28.69c3.43,1.98,7.66,1.98,11.09,0l49.7-28.69c3.43-1.98,5.54-5.64,5.54-9.6v-57.38c0-3.97-2.11-7.63-5.54-9.61Zm-28.72,47.2c0,3.97-2.11,7.63-5.55,9.61l-15.43,8.91c-3.43,1.98-7.66,1.98-11.09,0l-15.43-8.91c-3.43-1.98-5.55-5.64-5.55-9.61v-17.81c0-3.97,2.12-7.63,5.55-9.61l15.43-8.91c3.43-1.98,7.66-1.98,11.09,0l15.43,8.91c3.44,1.98,5.55,5.64,5.55,9.61v17.81Z"/>
  </g>
  <g>
    <path class="cls-1" id="i1" d="M12.76,219.39h6.4v40.57h-6.4v-40.57Z"/>
    <path class="cls-1" id="n1" d="M79.06,219.69c1.68,0,3.27,.32,4.76,.94,1.49,.63,2.8,1.51,3.93,2.64s2.01,2.44,2.65,3.93c.64,1.5,.96,3.08,.96,4.76v28.06h-6.34v-28.06c0-.82-.15-1.59-.46-2.31-.31-.72-.74-1.35-1.29-1.89-.55-.54-1.19-.97-1.91-1.3-.72-.32-1.49-.48-2.31-.48h-16.02c-1.68,0-3.1,.59-4.26,1.76s-1.74,2.58-1.74,4.21v28.06h-6.37v-28.06c0-1.68,.33-3.27,.98-4.76,.65-1.49,1.54-2.8,2.65-3.93s2.42-2.01,3.91-2.64c1.49-.63,3.1-.94,4.83-.94h16.02Z"/>
    <path class="cls-1" id="n2" d="M151.27,219.69c1.68,0,3.27,.32,4.76,.94,1.49,.63,2.8,1.51,3.93,2.64,1.13,1.13,2.01,2.44,2.65,3.93,.64,1.5,.96,3.08,.96,4.76v28.06h-6.34v-28.06c0-.82-.15-1.59-.46-2.31-.31-.72-.74-1.35-1.29-1.89-.55-.54-1.19-.97-1.91-1.3-.72-.32-1.49-.48-2.31-.48h-16.02c-1.68,0-3.1,.59-4.26,1.76s-1.74,2.58-1.74,4.21v28.06h-6.37v-28.06c0-1.68,.33-3.27,.98-4.76,.65-1.49,1.54-2.8,2.65-3.93s2.42-2.01,3.91-2.64c1.49-.63,3.1-.94,4.83-.94h16.02Z"/>
    <path class="cls-1" id="o1" d="M223.41,219.16c1.66,0,3.24,.32,4.74,.94,1.5,.63,2.82,1.52,3.95,2.65,1.13,1.14,2.01,2.45,2.64,3.95,.63,1.49,.95,3.08,.95,4.76v16.02c0,1.72-.32,3.32-.95,4.79-.63,1.47-1.51,2.77-2.64,3.9s-2.44,2.01-3.95,2.65-3.08,.96-4.74,.96h-16.05c-1.7,0-3.3-.32-4.78-.96s-2.79-1.53-3.91-2.65-2.01-2.43-2.64-3.9c-.63-1.47-.95-3.07-.95-4.79v-16.02c0-1.68,.32-3.27,.95-4.76,.63-1.5,1.51-2.81,2.64-3.95,1.13-1.14,2.43-2.02,3.91-2.65,1.48-.63,3.07-.94,4.78-.94h16.05Zm-21.54,30.65c.32,.73,.75,1.37,1.29,1.91,.54,.54,1.18,.97,1.91,1.28s1.49,.46,2.29,.46h16.05c.82,0,1.59-.16,2.31-.46s1.35-.73,1.89-1.28c.54-.54,.97-1.18,1.29-1.91s.48-1.5,.48-2.32v-16.02c0-.82-.16-1.59-.48-2.32s-.75-1.37-1.29-1.91c-.54-.54-1.17-.97-1.89-1.28s-1.49-.46-2.31-.46h-16.05c-.8,0-1.56,.16-2.29,.46s-1.37,.73-1.91,1.28c-.54,.54-.97,1.18-1.29,1.91s-.48,1.5-.48,2.32v16.02c0,.82,.16,1.59,.48,2.32Z"/>
    <path class="cls-1" id="v1" d="M308.98,219.73l-14.69,39.74h-16.02l-14.43-39.54h6.73c8.03,21.65,12.13,32.73,12.31,33.24h6.87c.18-.51,4.35-11.65,12.51-33.44h6.73Z"/>
    <path class="cls-1" id="a1" d="M337.64,222.35c.86-.97,1.84-1.82,2.92-2.54,1.08-.72,2.24-1.28,3.48-1.69,1.24-.41,2.48-.61,3.72-.61s2.52,.2,3.76,.61c1.25,.41,2.42,.97,3.5,1.69,1.08,.72,2.05,1.56,2.89,2.54,.84,.97,1.48,2.03,1.92,3.18l8.86,22.26c.62,1.68,.92,3.23,.9,4.66-.02,1.42-.34,2.64-.96,3.63-.91,1.42-1.23,2.03-2.95,2.03l-2.92-8-8.82-22.29c-.22-.49-.55-.97-.98-1.44-.43-.48-.93-.91-1.49-1.3-.56-.39-1.18-.69-1.84-.93-.66-.23-1.28-.35-1.86-.35s-1.21,.12-1.84,.35c-.63,.23-1.23,.54-1.79,.93-.56,.39-1.07,.82-1.53,1.3-.45,.47-.8,.95-1.04,1.44l-8.56,22.54-2.86,7.79c-1.72,0-2.26-.65-3.17-2.07-.69-1-1.03-2.19-1.03-3.58s.32-3.03,.96-4.71l8.76-22.26c.46-1.15,1.13-2.21,1.99-3.18Z"/>
    <polygon class="cls-1" id="a_minus" points="350.5 239.11 345.01 239.11 342.27 243.86 345.01 248.6 350.5 248.6 353.24 243.86 350.5 239.11"/>
    <path class="cls-1" id="t1" d="M427.89,218.86v6.3h-14v34.53h-6.3v-34.53h-14v-6.3h34.3Z"/>
    <path class="cls-1" id="i2" d="M459.4,219.39h6.4v40.57h-6.4v-40.57Z"/>
    <path class="cls-1" id="o2" d="M525.63,219.16c1.66,0,3.24,.32,4.74,.94,1.5,.63,2.82,1.52,3.95,2.65,1.13,1.14,2.01,2.45,2.64,3.95,.63,1.49,.95,3.08,.95,4.76v16.02c0,1.72-.32,3.32-.95,4.79-.63,1.47-1.51,2.77-2.64,3.9-1.13,1.13-2.44,2.01-3.95,2.65-1.5,.64-3.08,.96-4.74,.96h-16.05c-1.7,0-3.3-.32-4.78-.96-1.48-.64-2.79-1.53-3.91-2.65s-2.01-2.43-2.64-3.9c-.63-1.47-.95-3.07-.95-4.79v-16.02c0-1.68,.32-3.27,.95-4.76,.63-1.5,1.51-2.81,2.64-3.95,1.13-1.14,2.43-2.02,3.91-2.65,1.48-.63,3.07-.94,4.78-.94h16.05Zm-21.54,30.65c.32,.73,.75,1.37,1.29,1.91,.54,.54,1.18,.97,1.91,1.28s1.49,.46,2.29,.46h16.05c.82,0,1.59-.16,2.31-.46s1.35-.73,1.89-1.28c.54-.54,.97-1.18,1.29-1.91s.48-1.5,.48-2.32v-16.02c0-.82-.16-1.59-.48-2.32s-.75-1.37-1.29-1.91c-.54-.54-1.17-.97-1.89-1.28s-1.49-.46-2.31-.46h-16.05c-.8,0-1.56,.16-2.29,.46s-1.37,.73-1.91,1.28c-.54,.54-.97,1.18-1.29,1.91s-.48,1.5-.48,2.32v16.02c0,.82,.16,1.59,.48,2.32Z"/>
    <path class="cls-1" id="n3" d="M597.81,219.69c1.68,0,3.27,.32,4.76,.94,1.49,.63,2.8,1.51,3.93,2.64s2.01,2.44,2.65,3.93c.64,1.5,.96,3.08,.96,4.76v28.06h-6.34v-28.06c0-.82-.16-1.59-.46-2.31-.31-.72-.74-1.35-1.29-1.89-.55-.54-1.19-.97-1.91-1.3-.72-.32-1.49-.48-2.31-.48h-16.02c-1.68,0-3.1,.59-4.26,1.76-1.16,1.17-1.74,2.58-1.74,4.21v28.06h-6.37v-28.06c0-1.68,.33-3.27,.98-4.76,.65-1.49,1.54-2.8,2.65-3.93,1.12-1.13,2.42-2.01,3.92-2.64,1.49-.63,3.1-.94,4.83-.94h16.02Z"/>
    <path class="cls-1" id="s1" d="M680.13,218.93v6.3h-26.7c-1.24,0-2.29,.43-3.17,1.29-.87,.86-1.31,1.92-1.31,3.18v1.92c0,1.22,.44,2.26,1.31,3.12,.88,.86,1.93,1.29,3.17,1.29h19.01c1.5,0,2.91,.28,4.23,.84,1.32,.57,2.47,1.33,3.47,2.31,1,.97,1.77,2.12,2.34,3.43,.56,1.31,.84,2.71,.84,4.19v1.92c0,1.48-.28,2.88-.84,4.19-.57,1.32-1.34,2.46-2.34,3.43-1,.97-2.15,1.74-3.47,2.31-1.31,.56-2.73,.84-4.23,.84h-26.64v-6.3h26.64c1.28,0,2.35-.44,3.2-1.33,.85-.89,1.28-1.93,1.28-3.15v-1.92c0-1.22-.43-2.26-1.28-3.12-.85-.86-1.92-1.29-3.2-1.29h-19.01c-1.5,0-2.91-.28-4.23-.84-1.31-.57-2.46-1.34-3.43-2.34s-1.74-2.14-2.3-3.43c-.57-1.3-.85-2.68-.85-4.16v-1.92c0-1.48,.28-2.88,.85-4.19,.56-1.32,1.33-2.46,2.3-3.43s2.12-1.74,3.43-2.31c1.32-.56,2.73-.84,4.23-.84h26.7Z"/>
  </g>
</svg>